<?xml version="1.0" encoding="UTF-8" standalone="no"?>
<!-- Created with Inkscape (http://www.inkscape.org/) -->

<svg
   width="89.389359mm"
   height="90.384377mm"
   viewBox="0 0 89.389357 90.384376"
   version="1.1"
   id="svg1"
   xml:space="preserve"
   inkscape:version="1.4.2 (ebf0e940d0, 2025-05-08)"
   sodipodi:docname="logo.svg"
   xmlns:inkscape="http://www.inkscape.org/namespaces/inkscape"
   xmlns:sodipodi="http://sodipodi.sourceforge.net/DTD/sodipodi-0.dtd"
   xmlns="http://www.w3.org/2000/svg"
   xmlns:svg="http://www.w3.org/2000/svg"><sodipodi:namedview
     id="namedview1"
     pagecolor="#ffffff"
     bordercolor="#666666"
     borderopacity="1.0"
     inkscape:showpageshadow="2"
     inkscape:pageopacity="0.0"
     inkscape:pagecheckerboard="0"
     inkscape:deskcolor="#d1d1d1"
     inkscape:document-units="mm"
     inkscape:zoom="2"
     inkscape:cx="54.75"
     inkscape:cy="251.25"
     inkscape:window-width="2556"
     inkscape:window-height="1393"
     inkscape:window-x="0"
     inkscape:window-y="0"
     inkscape:window-maximized="1"
     inkscape:current-layer="layer1" /><defs
     id="defs1" /><g
     inkscape:label="Layer 1"
     inkscape:groupmode="layer"
     id="layer1"
     transform="translate(-3.0279966,-108.19259)"><g
       style="clip-rule:evenodd;fill-rule:evenodd;image-rendering:optimizeQuality;shape-rendering:geometricPrecision;text-rendering:geometricPrecision"
       id="g1"
       transform="matrix(0.22293206,0,0,0.22293206,3.9076437,97.502896)"><path
         style="stroke:#c9c9c9;stroke-width:7.90242;stroke-dasharray:none;stroke-opacity:1"
         d="M 9.2008352,168.35072 C -4.863871,134.81549 -3.1974744,99.69359 16.910909,76.156735 41.037781,47.915697 84.659101,44.678583 125.17088,64.539798 82.115653,94.088438 43.023105,128.53262 9.2008352,168.35072 Z"
         id="path6" /><path
         style="stroke:#c9c9c9;stroke-width:7.90242;stroke-dasharray:none;stroke-opacity:1"
         d="M 384.06034,167.27434 C 397.85396,134.36102 396.21148,99.884947 376.47784,76.786617 352.79746,49.063837 309.98941,45.890507 270.22711,65.384956 312.49299,94.375473 350.852,128.19774 384.06034,167.27434 Z"
         id="path5" /><path
         id="path1"
         style="stroke:#9b9b9b;stroke-width:2.46406;stroke-dasharray:none;stroke-opacity:1"
         d="m 193.85742,91.453125 c -26.61103,0.392531 -53.10509,7.113489 -76.66203,19.503205 -0.62602,0.32661 -1.24716,0.66248 -1.87117,0.99289 -0.19943,0.11515 -1.05169,0.57617 -1.503,0.82477 -9.20136,5.09204 -17.929616,11.0356 -26.047782,17.72015 -0.193644,0.16866 -0.921552,0.76822 -1.320897,1.10279 -0.18963,0.15257 -0.84159,0.71613 -1.2459,1.05874 -22.64075,19.3702 -40.120255,44.73006 -50.0466,72.83167 -12.413883,34.85914 -13.04801,73.76387 -1.843341,109.02494 8.771418,27.82938 24.87536,53.27854 46.174554,73.21166 5.23802,4.95189 10.859471,9.47531 16.620489,13.80066 1.221216,0.93516 2.442432,1.87032 3.663648,2.80548 -8.360632,12.50019 -16.74445,24.98533 -25.085938,37.49804 -1.75453,2.7707 -0.918012,6.78915 1.813637,8.61164 2.657439,1.9944 6.782277,1.41582 8.801021,-1.2175 4.755804,-6.99143 9.41843,-14.04911 14.138359,-21.06605 3.77525,-5.63786 7.5509,-11.27546 11.32511,-16.91402 6.50696,3.36674 12.98601,6.81376 19.77017,9.60092 23.06684,9.69653 48.28927,14.13874 73.28051,13.08737 24.74958,-0.98017 49.26441,-7.43439 71.2715,-18.80494 2.04692,-1.03855 4.0938,-2.07719 6.14071,-3.11577 8.94579,12.56525 17.85879,25.15478 26.82312,37.70627 2.02297,2.65215 6.17746,3.21444 8.83564,1.20139 2.77842,-1.88598 3.55782,-6.04779 1.64557,-8.80925 -8.72813,-12.31796 -17.48947,-24.61322 -26.23011,-36.92263 6.01501,-4.49647 12.09761,-8.92422 17.69637,-13.94244 22.63447,-19.91398 39.87996,-45.90217 49.33294,-74.53613 8.53717,-25.67291 10.76908,-53.37641 6.68553,-80.10932 -0.0219,-0.0988 -0.1814,-1.13448 -0.25382,-1.57727 -4.34331,-26.93453 -15.33566,-52.74857 -31.66885,-74.59592 -17.79498,-23.91013 -41.92241,-43.06166 -69.27967,-54.90179 -21.39013,-9.309833 -44.71147,-14.090334 -68.03356,-14.088287 -0.97541,-0.0075 -1.95082,0.01337 -2.92621,0.01873 z m 2.82422,12.951175 c 23.41478,-0.0226 46.82869,5.19639 67.96448,15.28801 24.85439,11.7908 46.50291,30.21022 62.17265,52.81611 14.33752,20.59134 23.65611,44.64846 26.87511,69.53541 3.45682,26.35144 0.24281,53.57551 -9.47533,78.32596 -10.21342,26.21753 -27.60773,49.56687 -49.74003,66.93099 -20.03833,15.79253 -43.9564,26.6248 -69.06084,31.1968 -28.16778,5.17315 -57.73996,2.62424 -84.53994,-7.51226 C 115.18508,401.34265 92.137588,384.8308 74.661845,363.68018 58.312389,343.97683 46.844608,320.24896 41.658115,295.1712 c -6.10028,-29.26314 -3.785364,-60.25304 6.792113,-88.2251 9.609118,-25.60063 26.037737,-48.57547 47.080741,-66.02749 19.723511,-16.4269 43.501241,-27.95415 68.639441,-33.16953 10.6834,-2.23335 21.59804,-3.33941 32.51123,-3.34478 z m -0.35352,55.45117 c -3.32022,0.096 -6.19467,3.11119 -6.13149,6.43274 -0.008,24.773 -0.001,49.54615 -0.003,74.31921 -3.18783,1.844 -6.62699,3.39881 -9.23768,6.07133 -4.92375,4.73857 -7.43708,11.80834 -6.63189,18.59219 0.76535,7.46024 5.59027,14.30985 12.30837,17.61898 6.96846,3.54975 15.78676,3.05677 22.30256,-1.27475 3.30411,-2.11673 5.92526,-5.16474 7.81055,-8.58557 0.56343,-0.93109 1.12685,-1.86218 1.69028,-2.79327 20.0455,-0.35365 40.09193,-0.68039 60.13672,-1.0586 3.31848,-0.15886 6.14418,-3.22341 6.01918,-6.54609 0.0541,-3.31506 -2.82547,-6.31129 -6.13676,-6.40388 -12.36427,0.16555 -24.72917,0.42375 -37.09368,0.62497 -7.39703,0.12918 -14.79408,0.25708 -22.19109,0.3875 -1.80798,-3.3275 -3.26839,-6.92927 -5.93302,-9.698 -2.0696,-2.33105 -4.71881,-4.02538 -7.44948,-5.47712 -0.87185,-0.49371 -1.7437,-0.98742 -2.61554,-1.48113 -0.009,-24.86647 0.0182,-49.73345 -0.0137,-74.5996 -0.12269,-3.50284 -3.33649,-6.37685 -6.83008,-6.12891 z" /></g><g
       id="g2"
       transform="matrix(1.1829476,0,0,1.1829476,-23.796132,-92.85874)"><path
         d="m 58.957478,243.37781 c -4.954022,-0.37329 -9.926277,-1.74069 -14.297339,-3.93195 -3.522645,-1.76587 -6.609973,-4.01615 -9.316368,-6.7906 -7.263517,-7.44588 -10.301663,-17.75922 -8.354854,-28.36313 1.602984,-8.73176 6.27034,-15.99703 13.24412,-20.61561 6.573801,-4.35396 15.199946,-6.41736 25.236257,-6.03675 l 2.229791,0.0846 0.732011,-0.47295 c 2.906695,-1.87806 5.922814,-2.83539 11.003468,-3.49263 1.379939,-0.17851 1.571017,-0.18758 1.771209,-0.0841 0.246081,0.12725 0.323833,0.26714 0.323833,0.5826 0,0.11408 -0.470776,2.22691 -1.046148,4.69522 -1.032525,4.42935 -1.044407,4.49133 -0.915235,4.76232 0.07205,0.15099 0.519936,0.97973 0.995426,1.8416 0.475482,0.86192 0.991674,1.80123 1.14706,2.08739 0.155436,0.28614 1.604832,2.9155 3.221025,5.84299 1.616096,2.92751 3.930411,7.12368 5.142942,9.32488 3.316414,6.02046 5.117747,9.28544 5.558605,10.07514 0.520369,0.93201 0.648385,1.52358 0.643081,2.97166 -0.0037,0.93861 -0.0378,1.25023 -0.211706,1.91915 -0.886467,3.40964 -4.011049,6.30722 -9.022844,8.36735 -1.135081,0.46661 -2.390437,0.87932 -2.674642,0.87932 -0.260204,0 -0.398527,-0.15793 -1.156697,-1.32072 -1.367953,-2.09803 -4.007145,-5.12123 -6.701458,-7.67672 -1.54141,-1.462 -2.064844,-1.89528 -5.785125,-4.78907 -4.72739,-3.67714 -6.429858,-5.12356 -8.688028,-7.38123 -4.092897,-4.09208 -6.031412,-7.45501 -6.322998,-10.96863 -0.09221,-1.11039 0.193016,-2.86675 0.518262,-3.19194 0.426396,-0.42638 1.194807,-0.0152 1.090099,0.58351 -0.02755,0.158 -0.07072,0.66951 -0.09579,1.13671 -0.03749,0.6996 -0.0165,0.96436 0.119146,1.50074 0.653323,2.58356 3.115596,5.53759 7.576307,9.08944 2.061971,1.64181 3.463938,2.64892 7.804058,5.60592 5.321422,3.62552 5.83819,4.03432 8.364379,6.61582 2.364623,2.41646 3.579711,3.92078 4.454052,5.51373 0.229535,0.4182 0.424871,0.7714 0.43405,0.78488 0.04045,0.0594 1.04236,-0.25099 1.648571,-0.51043 2.57731,-1.10312 4.245757,-3.31212 4.751267,-6.29084 l 0.131317,-0.77365 -2.378864,-3.9888 c -1.308428,-2.19382 -3.035376,-5.08741 -3.837793,-6.43007 -2.177942,-3.64455 -10.509642,-17.60451 -11.075186,-18.55836 -0.270635,-0.45587 -0.511138,-0.90612 -0.534456,-1.00051 -0.02571,-0.10416 0.363954,-1.336 0.991152,-3.13322 1.187329,-3.40227 1.187027,-3.14101 0.0029,-2.83929 -1.832371,0.46703 -3.613217,1.31765 -7.230116,3.45328 -0.731487,0.43195 -1.283122,0.70666 -1.418977,0.70666 -0.122271,0 -0.664307,-0.0713 -1.204545,-0.1583 -2.534588,-0.40851 -5.186275,-0.5698 -7.745764,-0.47116 -5.65828,0.21809 -10.864135,1.92367 -15.208146,4.98271 -4.878818,3.43577 -9.049578,9.06987 -11.014732,14.8803 -3.064373,9.05819 -0.698158,19.53372 6.17792,27.35089 5.113437,5.81309 12.118159,9.52066 19.965048,10.56805 1.616709,0.21569 4.649933,0.2953 6.269618,0.16453 7.223868,-0.58321 13.578118,-3.40781 18.715114,-8.31991 0.811014,-0.77544 0.967548,-0.89145 1.202807,-0.89145 0.624989,0 0.854825,0.49292 0.506748,1.08683 -0.781744,1.33393 -2.975747,3.72858 -4.649528,5.07471 -4.122409,3.31538 -9.308684,5.31127 -15.290111,5.88429 -1.136408,0.10886 -4.684971,0.14887 -5.793723,0.0654 z"
         stroke-width="0.94538"
         id="path2"
         sodipodi:nodetypes="cscscscssssssssssscssssssssssssssssssscsccssssscsscsssssssscc"
         style="fill:#404040;fill-opacity:1;stroke:#c9c9c9;stroke-opacity:1" /></g><g
       style="clip-rule:evenodd;fill-rule:evenodd;image-rendering:optimizeQuality;shape-rendering:geometricPrecision;text-rendering:geometricPrecision"
       id="g7"
       transform="matrix(0.22293206,0,0,0.22293206,3.9076437,97.502896)"><path
         style="stroke:#c9c9c9;stroke-width:7.90242;stroke-dasharray:none;stroke-opacity:1"
         d="M 9.2008352,168.35072 C -4.863871,134.81549 -3.1974744,99.69359 16.910909,76.156735 41.037781,47.915697 84.659101,44.678583 125.17088,64.539798 82.115653,94.088438 43.023105,128.53262 9.2008352,168.35072 Z"
         id="path3" /><path
         style="stroke:#c9c9c9;stroke-width:7.90242;stroke-dasharray:none;stroke-opacity:1"
         d="M 384.06034,167.27434 C 397.85396,134.36102 396.21148,99.884947 376.47784,76.786617 352.79746,49.063837 309.98941,45.890507 270.22711,65.384956 312.49299,94.375473 350.852,128.19774 384.06034,167.27434 Z"
         id="path4" /><path
         id="path7"
         style="stroke:#9b9b9b;stroke-width:2.46406;stroke-dasharray:none;stroke-opacity:1"
         d="m 193.85742,91.453125 c -26.61103,0.392531 -53.10509,7.113489 -76.66203,19.503205 -0.62602,0.32661 -1.24716,0.66248 -1.87117,0.99289 -0.19943,0.11515 -1.05169,0.57617 -1.503,0.82477 -9.20136,5.09204 -17.929616,11.0356 -26.047782,17.72015 -0.193644,0.16866 -0.921552,0.76822 -1.320897,1.10279 -0.18963,0.15257 -0.84159,0.71613 -1.2459,1.05874 -22.64075,19.3702 -40.120255,44.73006 -50.0466,72.83167 -12.413883,34.85914 -13.04801,73.76387 -1.843341,109.02494 8.771418,27.82938 24.87536,53.27854 46.174554,73.21166 5.23802,4.95189 10.859471,9.47531 16.620489,13.80066 1.221216,0.93516 2.442432,1.87032 3.663648,2.80548 -8.360632,12.50019 -16.74445,24.98533 -25.085938,37.49804 -1.75453,2.7707 -0.918012,6.78915 1.813637,8.61164 2.657439,1.9944 6.782277,1.41582 8.801021,-1.2175 4.755804,-6.99143 9.41843,-14.04911 14.138359,-21.06605 3.77525,-5.63786 7.5509,-11.27546 11.32511,-16.91402 6.50696,3.36674 12.98601,6.81376 19.77017,9.60092 23.06684,9.69653 48.28927,14.13874 73.28051,13.08737 24.74958,-0.98017 49.26441,-7.43439 71.2715,-18.80494 2.04692,-1.03855 4.0938,-2.07719 6.14071,-3.11577 8.94579,12.56525 17.85879,25.15478 26.82312,37.70627 2.02297,2.65215 6.17746,3.21444 8.83564,1.20139 2.77842,-1.88598 3.55782,-6.04779 1.64557,-8.80925 -8.72813,-12.31796 -17.48947,-24.61322 -26.23011,-36.92263 6.01501,-4.49647 12.09761,-8.92422 17.69637,-13.94244 22.63447,-19.91398 39.87996,-45.90217 49.33294,-74.53613 8.53717,-25.67291 10.76908,-53.37641 6.68553,-80.10932 -0.0219,-0.0988 -0.1814,-1.13448 -0.25382,-1.57727 -4.34331,-26.93453 -15.33566,-52.74857 -31.66885,-74.59592 -17.79498,-23.91013 -41.92241,-43.06166 -69.27967,-54.90179 -21.39013,-9.309833 -44.71147,-14.090334 -68.03356,-14.088287 -0.97541,-0.0075 -1.95082,0.01337 -2.92621,0.01873 z m 2.82422,12.951175 c 23.41478,-0.0226 46.82869,5.19639 67.96448,15.28801 24.85439,11.7908 46.50291,30.21022 62.17265,52.81611 14.33752,20.59134 23.65611,44.64846 26.87511,69.53541 3.45682,26.35144 0.24281,53.57551 -9.47533,78.32596 -10.21342,26.21753 -27.60773,49.56687 -49.74003,66.93099 -20.03833,15.79253 -43.9564,26.6248 -69.06084,31.1968 -28.16778,5.17315 -57.73996,2.62424 -84.53994,-7.51226 C 115.18508,401.34265 92.137588,384.8308 74.661845,363.68018 58.312389,343.97683 46.844608,320.24896 41.658115,295.1712 c -6.10028,-29.26314 -3.785364,-60.25304 6.792113,-88.2251 9.609118,-25.60063 26.037737,-48.57547 47.080741,-66.02749 19.723511,-16.4269 43.501241,-27.95415 68.639441,-33.16953 10.6834,-2.23335 21.59804,-3.33941 32.51123,-3.34478 z m -0.35352,55.45117 c -3.32022,0.096 -6.19467,3.11119 -6.13149,6.43274 -0.008,24.773 -0.001,49.54615 -0.003,74.31921 -3.18783,1.844 -6.62699,3.39881 -9.23768,6.07133 -4.92375,4.73857 -7.43708,11.80834 -6.63189,18.59219 0.76535,7.46024 5.59027,14.30985 12.30837,17.61898 6.96846,3.54975 15.78676,3.05677 22.30256,-1.27475 3.30411,-2.11673 5.92526,-5.16474 7.81055,-8.58557 0.56343,-0.93109 1.12685,-1.86218 1.69028,-2.79327 20.0455,-0.35365 40.09193,-0.68039 60.13672,-1.0586 3.31848,-0.15886 6.14418,-3.22341 6.01918,-6.54609 0.0541,-3.31506 -2.82547,-6.31129 -6.13676,-6.40388 -12.36427,0.16555 -24.72917,0.42375 -37.09368,0.62497 -7.39703,0.12918 -14.79408,0.25708 -22.19109,0.3875 -1.80798,-3.3275 -3.26839,-6.92927 -5.93302,-9.698 -2.0696,-2.33105 -4.71881,-4.02538 -7.44948,-5.47712 -0.87185,-0.49371 -1.7437,-0.98742 -2.61554,-1.48113 -0.009,-24.86647 0.0182,-49.73345 -0.0137,-74.5996 -0.12269,-3.50284 -3.33649,-6.37685 -6.83008,-6.12891 z" /></g><g
       id="g8"
       transform="matrix(1.1829476,0,0,1.1829476,-23.796132,-92.85874)"><path
         d="m 58.957478,243.37781 c -4.954022,-0.37329 -9.926277,-1.74069 -14.297339,-3.93195 -3.522645,-1.76587 -6.609973,-4.01615 -9.316368,-6.7906 -7.263517,-7.44588 -10.301663,-17.75922 -8.354854,-28.36313 1.602984,-8.73176 6.27034,-15.99703 13.24412,-20.61561 6.573801,-4.35396 15.199946,-6.41736 25.236257,-6.03675 l 2.229791,0.0846 0.732011,-0.47295 c 2.906695,-1.87806 5.922814,-2.83539 11.003468,-3.49263 1.379939,-0.17851 1.571017,-0.18758 1.771209,-0.0841 0.246081,0.12725 0.323833,0.26714 0.323833,0.5826 0,0.11408 -0.470776,2.22691 -1.046148,4.69522 -1.032525,4.42935 -1.044407,4.49133 -0.915235,4.76232 0.07205,0.15099 0.519936,0.97973 0.995426,1.8416 0.475482,0.86192 0.991674,1.80123 1.14706,2.08739 0.155436,0.28614 1.604832,2.9155 3.221025,5.84299 1.616096,2.92751 3.930411,7.12368 5.142942,9.32488 3.316414,6.02046 5.117747,9.28544 5.558605,10.07514 0.520369,0.93201 0.648385,1.52358 0.643081,2.97166 -0.0037,0.93861 -0.0378,1.25023 -0.211706,1.91915 -0.886467,3.40964 -4.011049,6.30722 -9.022844,8.36735 -1.135081,0.46661 -2.390437,0.87932 -2.674642,0.87932 -0.260204,0 -0.398527,-0.15793 -1.156697,-1.32072 -1.367953,-2.09803 -4.007145,-5.12123 -6.701458,-7.67672 -1.54141,-1.462 -2.064844,-1.89528 -5.785125,-4.78907 -4.72739,-3.67714 -6.429858,-5.12356 -8.688028,-7.38123 -4.092897,-4.09208 -6.031412,-7.45501 -6.322998,-10.96863 -0.09221,-1.11039 0.193016,-2.86675 0.518262,-3.19194 0.426396,-0.42638 1.194807,-0.0152 1.090099,0.58351 -0.02755,0.158 -0.07072,0.66951 -0.09579,1.13671 -0.03749,0.6996 -0.0165,0.96436 0.119146,1.50074 0.653323,2.58356 3.115596,5.53759 7.576307,9.08944 2.061971,1.64181 3.463938,2.64892 7.804058,5.60592 5.321422,3.62552 5.83819,4.03432 8.364379,6.61582 2.364623,2.41646 3.579711,3.92078 4.454052,5.51373 0.229535,0.4182 0.424871,0.7714 0.43405,0.78488 0.04045,0.0594 1.04236,-0.25099 1.648571,-0.51043 2.57731,-1.10312 4.245757,-3.31212 4.751267,-6.29084 l 0.131317,-0.77365 -2.378864,-3.9888 c -1.308428,-2.19382 -3.035376,-5.08741 -3.837793,-6.43007 -2.177942,-3.64455 -10.509642,-17.60451 -11.075186,-18.55836 -0.270635,-0.45587 -0.511138,-0.90612 -0.534456,-1.00051 -0.02571,-0.10416 0.363954,-1.336 0.991152,-3.13322 1.187329,-3.40227 1.187027,-3.14101 0.0029,-2.83929 -1.832371,0.46703 -3.613217,1.31765 -7.230116,3.45328 -0.731487,0.43195 -1.283122,0.70666 -1.418977,0.70666 -0.122271,0 -0.664307,-0.0713 -1.204545,-0.1583 -2.534588,-0.40851 -5.186275,-0.5698 -7.745764,-0.47116 -5.65828,0.21809 -10.864135,1.92367 -15.208146,4.98271 -4.878818,3.43577 -9.049578,9.06987 -11.014732,14.8803 -3.064373,9.05819 -0.698158,19.53372 6.17792,27.35089 5.113437,5.81309 12.118159,9.52066 19.965048,10.56805 1.616709,0.21569 4.649933,0.2953 6.269618,0.16453 7.223868,-0.58321 13.578118,-3.40781 18.715114,-8.31991 0.811014,-0.77544 0.967548,-0.89145 1.202807,-0.89145 0.624989,0 0.854825,0.49292 0.506748,1.08683 -0.781744,1.33393 -2.975747,3.72858 -4.649528,5.07471 -4.122409,3.31538 -9.308684,5.31127 -15.290111,5.88429 -1.136408,0.10886 -4.684971,0.14887 -5.793723,0.0654 z"
         stroke-width="0.94538"
         id="path8"
         sodipodi:nodetypes="cscscscssssssssssscssssssssssssssssssscsccssssscsscsssssssscc"
         style="fill:#404040;fill-opacity:1;stroke:#c9c9c9;stroke-opacity:1" /></g></g></svg>
